<?xml version="1.0" encoding="UTF-8" standalone="no"?>
<svg
   width="48"
   height="48"
   viewBox="0 0 48 48"
   version="1.1"
   id="svg3"
   xml:space="preserve"
   xmlns="http://www.w3.org/2000/svg">
<path
   style="fill:#000000"
   d="m 133.91284,208.68628 c -0.62919,-0.1328 -1.78113,-0.53316 -2.55988,-0.88968 -0.77875,-0.35653 -1.94711,-1.13788 -2.59636,-1.73634 -0.66751,-0.61528 -1.43425,-1.67806 -1.76451,-2.44576 -0.36073,-0.83855 -0.52847,-1.63556 -0.43868,-2.08449 0.0799,-0.39975 1.53121,-3.29842 3.22502,-6.44148 l 3.07966,-5.71465 2.95145,0.003 2.95145,0.003 1.39791,2.6431 1.39792,2.6431 -3.91146,0.88199 c -3.43624,0.48511 -4.01622,0.48511 -4.77377,0.48511 -0.47427,0 -1.10581,0.9138 -1.40342,2.03123 -0.42857,1.61195 -0.52218,2.73166 -0.45009,5.4842 0.0706,2.758 0.24856,3.82842 0.79318,4.79245 0.38618,0.68131 1.13127,1.6242 1.65576,2.09308 0.52448,0.46889 1.67202,1.08612 2.55009,1.36942 1.19674,0.38655 2.13274,0.39374 3.73807,0.0292 1.27618,-0.29399 2.84139,-0.95963 3.87343,-1.65257 l 1.73187,-1.15044 1.67746,0.67907 c 1.41889,0.57507 1.92963,0.63217 3.31331,0.37485 0.89971,-0.16732 2.23184,-0.61127 2.96029,-0.98655 l 1.32445,-0.68233 -1.45521,1.49533 c -0.80036,0.82244 -2.16958,2.0066 -3.04271,2.63147 -0.87312,0.62488 -2.3614,1.52581 -3.30729,2.00207 -0.94588,0.47627 -2.43416,1.09595 -3.30729,1.37708 -1.13336,0.36493 -2.57146,0.53881 -5.02708,0.60783 -1.89177,0.0532 -3.95438,-0.012 -4.58357,-0.1448 z m -20.15497,-1.97261 c 0,-0.0675 1.00028,-1.94272 2.22285,-4.16719 1.22257,-2.22446 2.95598,-5.35416 3.85203,-6.95489 0.89604,-1.60073 4.03318,-7.23686 6.97141,-12.52473 2.93824,-5.28787 5.59999,-9.89673 5.91501,-10.2419 0.31502,-0.34518 0.90271,-0.7104 1.30598,-0.81162 0.42957,-0.10781 1.17364,-0.0301 1.7967,0.18774 1.04632,0.36576 1.14931,0.52732 6.37937,10.00675 3.35919,6.08848 5.50609,9.70699 5.83262,9.83059 0.2842,0.10758 0.81439,0.13002 1.17819,0.0499 0.3638,-0.0802 0.9749,-0.36466 1.358,-0.63222 0.38309,-0.26756 0.96436,-1.05387 1.29171,-1.74735 0.41711,-0.88364 0.63466,-1.94267 0.72716,-3.5397 0.0932,-1.60949 -0.002,-2.87993 -0.32332,-4.32531 -0.25042,-1.12557 -0.95061,-3.01449 -1.55599,-4.19761 -0.7866,-1.5373 -1.66694,-2.72272 -3.08506,-4.15419 -1.59584,-1.61087 -2.47651,-2.2453 -4.49791,-3.24031 -1.88831,-0.92948 -3.13879,-1.34425 -5.02709,-1.66741 -1.71129,-0.29286 -3.10075,-0.37264 -4.35333,-0.24995 -1.01189,0.0991 -2.7383,0.46523 -3.83646,0.81358 -1.09817,0.34834 -2.76854,1.08289 -3.71193,1.63231 -0.9434,0.54943 -2.51637,1.80379 -3.49549,2.78747 -1.34033,1.34656 -2.0784,2.39262 -2.98692,4.23333 -0.66368,1.34465 -1.38059,3.27826 -1.59314,4.29691 -0.21255,1.01865 -0.38568,2.74505 -0.38474,3.83646 9.5e-4,1.09141 0.10939,2.44856 0.241,3.01589 0.22484,0.96928 0.14064,1.20459 -1.39538,3.8996 -0.89906,1.57744 -1.71539,2.86943 -1.81408,2.87109 -0.0987,0.002 -0.43334,-0.67564 -0.74367,-1.50509 -0.31034,-0.82944 -0.75637,-2.28796 -0.99118,-3.24114 -0.28101,-1.14071 -0.43163,-2.9539 -0.44067,-5.30493 -0.0113,-2.94414 0.0918,-3.94387 0.58687,-5.68855 0.33033,-1.16416 1.07172,-3.06916 1.64753,-4.23333 0.57581,-1.16417 1.66149,-2.93349 2.41263,-3.93182 0.75113,-0.99833 2.20957,-2.51935 3.24098,-3.38004 1.0314,-0.86068 3.02436,-2.14593 4.42879,-2.8561 1.64414,-0.83139 3.46053,-1.50082 5.1004,-1.87976 2.1896,-0.50597 3.03765,-0.56875 6.04544,-0.4475 2.44535,0.0986 4.09286,0.31295 5.47271,0.71215 1.08578,0.31412 2.99766,1.09975 4.24864,1.74586 1.25097,0.6461 3.06139,1.8238 4.02316,2.61711 0.96177,0.79331 2.35573,2.19206 3.09768,3.10833 0.74196,0.91626 1.80857,2.55891 2.37026,3.65031 0.56168,1.09141 1.26947,2.71535 1.57287,3.60877 0.3034,0.89341 0.67452,2.38169 0.82471,3.30729 0.15019,0.92559 0.27191,2.51634 0.27048,3.53498 -0.001,1.01865 -0.17531,2.66727 -0.38641,3.6636 -0.2111,0.99634 -0.79516,2.54415 -1.29791,3.43959 -0.50276,0.89543 -1.31024,2.00249 -1.79441,2.46012 -0.48417,0.45762 -1.53515,1.169 -2.33551,1.58083 -1.21083,0.62303 -1.78846,0.7499 -3.43958,0.75545 -1.63269,0.005 -2.24419,-0.12094 -3.45033,-0.71329 l -1.46595,-0.71996 -4.22259,-7.68543 c -2.32243,-4.22698 -4.34437,-7.86773 -4.49322,-8.09055 -0.21785,-0.32614 -0.48197,-0.0285 -1.35457,1.52622 -0.59618,1.06224 -3.96805,7.14032 -7.49304,13.50686 l -6.40909,11.57552 h -3.01811 c -1.65996,0 -3.0181,-0.0552 -3.0181,-0.12271 z"
   id="path1"
   transform="translate(-85,-140) scale(0.15)" />
</svg>
