<?xml version="1.0" encoding="UTF-8" standalone="no"?>
<svg
   width="48"
   height="48"
   viewBox="0 0 48 48"
   version="1.1"
   id="svg1"
   xml:space="preserve"
   xmlns="http://www.w3.org/2000/svg">
<path
   style="fill:#000000;stroke-width:1.09881"
   d="m 131.27518,149.9786 c -0.0981,-0.23844 -0.0961,-0.83872 0.005,-1.33397 0.10044,-0.49524 0.21876,-1.14397 0.26297,-1.44161 0.053,-0.3569 -0.27831,-0.75824 -0.97301,-1.17865 -0.57936,-0.35061 -1.54189,-0.94604 -2.13894,-1.32318 -0.61423,-0.38799 -1.37817,-1.24972 -1.7595,-1.98477 -0.37067,-0.71447 -0.74576,-2.03802 -0.83353,-2.94119 -0.11204,-1.15327 -0.002,-2.0831 0.36769,-3.1234 0.29,-0.8147 1.00956,-1.9794 1.59901,-2.5882 0.58947,-0.60881 1.69947,-1.40375 2.46669,-1.76652 0.76722,-0.36277 2.19789,-0.85273 3.17926,-1.0888 0.98139,-0.23606 3.34184,-0.57348 5.24547,-0.74981 1.90363,-0.17633 3.56687,-0.38148 3.69611,-0.45588 0.12922,-0.0744 0.14526,-0.59934 0.0356,-1.16652 -0.10966,-0.56717 -0.32784,-1.26309 -0.48491,-1.54647 -0.15707,-0.28338 -0.74436,-0.6941 -1.30508,-0.91272 -0.56073,-0.21861 -1.6131,-0.39747 -2.33861,-0.39747 -0.72552,0 -1.75418,0.14152 -2.28593,0.31448 -0.58219,0.18938 -1.26008,0.74799 -1.70401,1.40418 l -0.7372,1.08969 -2.32873,-0.004 c -1.28082,-0.002 -2.66733,-0.16341 -3.08116,-0.35807 -0.41384,-0.19467 -0.79601,-0.63732 -0.84928,-0.98366 -0.0532,-0.34635 0.0523,-1.05147 0.23461,-1.56692 0.18231,-0.51546 0.8167,-1.46613 1.40973,-2.11262 0.59305,-0.64649 1.70638,-1.46752 2.47411,-1.82451 0.76771,-0.357 2.0053,-0.78623 2.7502,-0.95384 0.7449,-0.16761 2.19734,-0.39192 3.22766,-0.49848 1.11474,-0.11529 2.86428,-0.0499 4.3205,0.16149 1.99842,0.29007 2.49147,0.28837 2.68862,-0.01 0.13278,-0.20048 0.17599,-0.52365 0.096,-0.71815 -0.10147,-0.24672 0.3847,-0.4156 1.60793,-0.55854 0.96435,-0.11269 2.92558,-0.0914 4.35829,0.0473 1.4327,0.13873 2.54317,0.15915 2.46771,0.0453 -0.0754,-0.11377 -1.11224,-0.49085 -2.30395,-0.83795 -1.85434,-0.5401 -2.83938,-0.6311 -6.83176,-0.63119 -3.4709,-8e-5 -5.28133,0.13288 -7.07277,0.51942 -1.32426,0.28575 -3.52361,1.00156 -4.88744,1.59071 -1.36383,0.58914 -3.05678,1.45945 -3.7621,1.93402 -0.70533,0.47457 -1.58765,1.28178 -1.96072,1.79379 -0.45098,0.61895 -0.72276,1.48929 -0.81094,2.59704 l -0.13263,1.6661 -0.95193,-0.0754 c -0.52355,-0.0415 -1.61343,-0.34091 -2.42196,-0.66545 -0.80852,-0.32455 -1.94519,-1.08085 -2.52594,-1.68067 -0.75154,-0.77622 -1.05558,-1.35343 -1.05478,-2.00249 6.2e-4,-0.50154 0.263,-1.31265 0.58308,-1.80247 0.32007,-0.4898 1.16603,-1.20733 1.87993,-1.59449 0.71388,-0.38716 3.32951,-1.3419 5.81251,-2.12163 2.48298,-0.77974 5.59801,-1.59898 6.92227,-1.82054 l 2.40775,-0.40284 -2.04913,-0.0252 c -1.12702,-0.0139 -2.99977,0.11243 -4.16168,0.28064 -1.1619,0.16823 -2.1873,0.2361 -2.27867,0.15084 -0.0913,-0.0852 0.0885,-0.88635 0.39958,-1.78023 0.52027,-1.49475 0.73305,-1.73218 2.65043,-2.95759 1.14662,-0.73281 2.81866,-1.58859 3.71565,-1.90174 0.897,-0.31317 2.9593,-0.71481 4.5829,-0.89257 2.62178,-0.28702 3.1064,-0.26816 4.33207,0.16862 0.82798,0.29505 1.81346,0.96044 2.46339,1.66325 0.59584,0.64431 1.39462,1.74016 1.77511,2.43522 0.38048,0.69508 0.86392,1.80086 1.07429,2.45732 0.2428,0.75763 0.55824,1.19355 0.86367,1.19355 0.26464,0 1.84266,0.62324 3.5067,1.38498 2.12281,0.97177 3.40181,1.7659 4.28668,2.66166 0.79937,0.80921 1.26117,1.54117 1.26117,1.99899 0,0.39728 -0.19518,1.07449 -0.43371,1.50491 -0.23854,0.43043 -0.93881,1.14209 -1.55615,1.58147 -0.61735,0.43936 -1.87811,1.08892 -2.8017,1.44346 -0.9236,0.35454 -2.066,0.64762 -2.53867,0.65128 l -0.85941,0.006 0.13737,6.52942 c 0.1117,5.3107 0.23649,6.7817 0.66841,7.88101 0.53058,1.35045 0.53043,1.35219 -0.18087,2.06274 -0.39154,0.39114 -1.11821,0.90635 -1.61481,1.14492 -0.49661,0.23857 -0.98043,0.54522 -1.07516,0.68146 -0.0948,0.13623 -0.0338,0.87861 0.13554,1.64974 0.25693,1.17036 0.22876,1.47577 -0.17041,1.84824 -0.29392,0.27426 -0.71234,0.37684 -1.08587,0.26622 -0.33424,-0.099 -0.67863,-0.35244 -0.76532,-0.56326 -0.0867,-0.21081 0.0234,-0.94457 0.24465,-1.63058 0.22126,-0.68601 0.31354,-1.36432 0.20508,-1.50737 -0.10852,-0.14305 -0.56418,-0.41043 -1.01267,-0.5942 -0.44849,-0.18376 -1.17679,-0.84361 -1.61843,-1.46634 l -0.80299,-1.13224 -1.07655,0.88199 c -0.5921,0.48511 -1.7718,1.179 -2.62155,1.54201 -0.95435,0.40768 -2.43047,0.72985 -3.86114,0.8427 -1.27388,0.10052 -2.37352,0.2693 -2.44364,0.37518 -0.0701,0.10583 0.0205,0.64222 0.2012,1.19187 0.18079,0.54965 0.24011,1.32876 0.13182,1.73135 -0.15764,0.58609 -0.37758,0.73198 -1.1035,0.73198 -0.53965,0 -0.97879,-0.17549 -1.08491,-0.43353 z m 8.75801,-9.47071 c 0.65291,-0.34507 1.44087,-1.03286 1.75104,-1.52841 0.31016,-0.49554 0.64044,-1.59272 0.73396,-2.43817 0.0935,-0.84544 0.0974,-1.71389 0.008,-1.92988 -0.13053,-0.3174 -0.58548,-0.34765 -2.37251,-0.15777 -1.21606,0.12921 -2.78277,0.43284 -3.48157,0.67474 -0.69881,0.24189 -1.613,0.81955 -2.03154,1.28368 -0.51399,0.56998 -0.76098,1.18119 -0.76098,1.88318 0,0.57162 0.21764,1.32925 0.48365,1.68363 0.26602,0.35438 0.7739,0.75361 1.12863,0.88719 0.35474,0.13358 1.25445,0.2488 1.99934,0.25605 0.86826,0.008 1.78042,-0.212 2.54146,-0.61424 z"
   id="path4"
   transform="translate(-80,-80) scale(0.2)" />
</svg>
