<?xml version="1.0" encoding="UTF-8" standalone="no"?>
<svg
   width="48"
   height="48"
   viewBox="0 0 48 48"
   version="1.1"
   id="svg4"
   xml:space="preserve"
   xmlns="http://www.w3.org/2000/svg">
<defs>
<linearGradient id="linearGradient99">
<stop style="stop-color:#000000;stop-opacity:1;" offset="0" id="stop106" />
<stop style="stop-color:#000000;stop-opacity:1;" offset="1" id="stop107" />
</linearGradient>
<linearGradient id="linearGradient99-1">
<stop style="stop-color:#000000;stop-opacity:1;" offset="0" id="stop103" />
<stop style="stop-color:#000000;stop-opacity:1;" offset="1" id="stop104" />
</linearGradient>
<linearGradient xlink:href="#linearGradient99" id="linearGradient101" x1="53.695872" y1="130.32245" x2="99.491241" y2="130.32245" gradientUnits="userSpaceOnUse" />
<linearGradient xlink:href="#linearGradient99-1" id="linearGradient106" x1="53.072075" y1="130.32245" x2="100.106" y2="130.32245" gradientUnits="userSpaceOnUse" />
</defs>
<path
   style="mix-blend-mode:luminosity;fill:url(#linearGradient106);fill-opacity:1;fill-rule:nonzero;stroke-width:1.228;stroke-dasharray:none;stroke:url(#linearGradient101)"
   d="m 55.016339,146.52828 c -0.366256,-0.2654 -0.845844,-0.93191 -1.065753,-1.48116 -0.219908,-0.54923 -0.316103,-1.22433 -0.213766,-1.50023 0.159749,-0.43067 1.356798,-0.50164 8.46225,-0.50164 6.934792,0 8.340073,0.0797 8.670405,0.49141 0.227867,0.28405 0.308334,0.84536 0.190694,1.33026 -0.111917,0.46136 -0.487342,1.13248 -0.83425,1.49137 -0.589419,0.60976 -1.086528,0.65251 -7.5872,0.65251 -5.582199,0 -7.088013,-0.0953 -7.62238,-0.48252 z m 27.907075,-0.0964 c -0.278538,-0.31841 -0.645837,-0.95824 -0.816225,-1.42186 -0.196429,-0.53449 -0.198747,-1.0482 -0.006,-1.40386 0.273443,-0.50548 1.136583,-0.56092 8.733698,-0.56092 5.016822,0 8.506677,0.12792 8.618993,0.31592 0.103828,0.17376 -0.0163,0.82351 -0.266839,1.44389 -0.250565,0.62039 -0.790231,1.37047 -1.199255,1.66686 -0.631881,0.45786 -1.782095,0.53887 -7.650635,0.53887 -6.175124,0 -6.960611,-0.0613 -7.413375,-0.5789 z m -19.980775,-5.69987 -3.937354,-0.16523 0.927779,-1.32185 c 0.510278,-0.72702 1.446914,-1.79276 2.08141,-2.36832 0.634498,-0.57555 1.375716,-1.17504 1.647153,-1.33219 0.271435,-0.15715 2.292508,-4.87784 4.491273,-10.49045 2.198761,-5.6126 3.997745,-10.24445 3.997745,-10.29299 0,-0.0486 0.225888,-0.32196 0.501963,-0.60757 0.391469,-0.40499 1.227505,-0.5193 3.797815,-0.5193 2.684158,0 3.413637,0.10729 3.930534,0.57831 0.349081,0.31807 2.39164,5.1492 4.539017,10.73584 3.898758,10.14302 3.906473,10.15917 5.396737,11.29089 0.820824,0.62333 1.956575,1.80202 2.523901,2.61928 0.567326,0.81725 1.031511,1.57001 1.031511,1.67278 0,0.10279 -6.073227,0.22715 -13.496068,0.27643 -7.422828,0.0492 -15.267871,0.0152 -17.433416,-0.0757 z m 18.152139,-4.5894 c 0,-0.16135 -0.947012,-2.87527 -2.10447,-6.03092 -1.157458,-3.15567 -2.212741,-5.85524 -2.345062,-5.99907 -0.132321,-0.14382 -1.185443,2.30986 -2.340269,5.45263 -1.154814,3.14278 -2.199219,5.97436 -2.320892,6.29244 -0.20459,0.53482 0.129641,0.57831 4.444739,0.57831 2.566277,0 4.665954,-0.13203 4.665954,-0.29339 z m -21.974674,-10.1452 0.09348,-9.77765 0.896255,-0.79713 c 0.829202,-0.7375 1.157795,-0.79713 4.39221,-0.79713 2.035831,0 3.495958,0.13333 3.495958,0.31924 0,0.1756 -0.239566,0.83897 -0.532366,1.47417 -0.532045,1.15423 -0.533809,1.15498 -2.95476,1.25045 l -2.422396,0.0955 -0.159717,7.10494 -0.159717,7.10493 -1.243101,1.90017 c -0.683705,1.04508 -1.300755,1.90015 -1.371221,1.90015 -0.07047,0 -0.08604,-4.39995 -0.03464,-9.77766 z m 33.234711,7.60163 -1.357593,-2.32493 v -6.83723 -6.83722 h -2.35664 c -1.50585,0 -2.469354,-0.14913 -2.668838,-0.41308 -0.171715,-0.22719 -0.469328,-0.89638 -0.661363,-1.48709 l -0.349165,-1.07399 h 3.596641 c 3.171452,0 3.678811,0.0792 4.291858,0.67007 0.382378,0.36854 0.773232,1.00054 0.868573,1.40447 0.09538,0.40391 0.132997,4.89454 0.08367,9.97916 l -0.08958,9.24478 z"
   id="path3"
   transform="translate(-20,-100) scale(0.3)" />
</svg>
