<?xml version="1.0" encoding="UTF-8" standalone="no"?>
<svg
   width="48"
   height="48"
   viewBox="0 0 48 48"
   version="1.1"
   id="svg2"
   xml:space="preserve"
   xmlns="http://www.w3.org/2000/svg">
<path
   style="fill:#000000;stroke-width:1.14337"
   d="m 55.893226,201.77608 c -0.272092,-0.58346 -0.0083,-1.26258 1.920253,-4.94221 1.229629,-2.3462 5.263356,-9.9534 8.963837,-16.90492 3.700479,-6.9515 6.923592,-12.90138 7.162471,-13.22196 0.274928,-0.36895 0.732146,-0.54736 1.24582,-0.48612 0.745974,0.0889 1.497708,1.39196 9.310711,16.13869 4.674571,8.82306 8.802905,16.65502 9.174088,17.40437 0.544904,1.10008 0.614804,1.49122 0.362974,2.03123 -0.303632,0.6511 -0.49192,0.6665 -7.119337,0.58204 l -6.807461,-0.0867 -1.926837,-3.56487 c -1.059761,-1.96068 -1.930076,-3.67426 -1.934036,-3.80794 -0.004,-0.13368 1.581249,-0.24306 3.522683,-0.24306 1.941434,0 3.52988,-0.0842 3.52988,-0.18711 0,-0.10289 -1.729164,-3.42069 -3.842588,-7.37282 -2.113422,-3.95212 -3.998335,-7.37488 -4.188697,-7.60611 -0.277666,-0.33728 -1.137244,1.06018 -4.346735,7.06674 -2.200344,4.11794 -4.000626,7.6249 -4.000626,7.79323 0,0.17504 1.45073,0.30607 3.388686,0.30607 1.863777,0 3.388685,0.13046 3.388685,0.2899 0,0.15945 -0.834917,1.90948 -1.855373,3.88895 l -1.855373,3.59906 h -6.888795 c -6.695681,0 -6.897639,-0.019 -7.20423,-0.6764 z"
   id="path2"
   transform="translate(-20,-160) scale(0.25)" />
</svg>
